<?xml version="1.0" standalone="no"?>
<!DOCTYPE svg PUBLIC "-//W3C//DTD SVG 20010904//EN"
 "http://www.w3.org/TR/2001/REC-SVG-20010904/DTD/svg10.dtd">
<svg version="1.0" xmlns="http://www.w3.org/2000/svg"
 width="1000.000000pt" height="657.000000pt" viewBox="0 0 1000.000000 657.000000"
 preserveAspectRatio="xMidYMid meet">

<g transform="translate(0.000000,657.000000) scale(0.100000,-0.100000)"
fill="#000000" stroke="none">
<path d="M2400 3271 c-205 -44 -354 -251 -320 -444 41 -228 222 -360 461 -336
88 9 148 37 207 96 71 71 95 129 96 233 l1 85 -175 0 -175 0 -3 -47 -3 -48
130 0 c91 0 131 -3 131 -11 0 -31 -26 -92 -52 -123 -50 -61 -109 -89 -199 -94
-74 -4 -84 -2 -145 28 -161 79 -218 268 -128 426 84 148 287 191 427 92 l29
-20 33 32 34 33 -29 23 c-73 62 -221 97 -320 75z"/>
<path d="M3071 2976 c-91 -30 -161 -131 -161 -232 0 -85 18 -133 71 -186 71
-71 163 -94 265 -63 211 63 237 366 39 467 -51 27 -154 33 -214 14z m155 -92
c121 -57 116 -249 -8 -299 -50 -20 -63 -19 -112 5 -58 28 -89 77 -89 143 0
124 105 200 209 151z"/>
<path d="M4221 2980 c-155 -38 -231 -245 -140 -383 70 -106 220 -144 310 -78
15 11 31 21 35 21 4 0 4 -26 1 -59 -9 -99 -53 -141 -148 -141 -49 0 -55 3 -93
43 l-41 43 -38 -16 c-20 -8 -37 -21 -37 -28 0 -28 82 -101 132 -118 98 -32
218 -1 272 69 49 64 56 110 56 385 l0 252 -50 0 c-38 0 -50 -4 -50 -15 0 -20
-15 -19 -48 5 -31 22 -112 33 -161 20z m138 -96 c66 -39 98 -142 67 -215 -8
-20 -31 -50 -51 -68 -114 -99 -283 54 -221 200 15 35 59 82 86 92 31 11 93 6
119 -9z"/>
<path d="M4916 2975 c-157 -56 -201 -297 -77 -421 51 -52 96 -69 181 -69 84 0
133 20 184 73 l28 30 -41 27 -41 27 -35 -30 c-41 -37 -91 -48 -138 -33 -40 13
-95 67 -81 79 5 5 38 21 74 36 36 15 79 34 97 42 17 8 34 14 37 14 4 0 34 12
67 27 55 24 60 29 54 52 -3 13 -20 44 -37 68 -59 81 -172 114 -272 78z m154
-92 c31 -21 41 -36 32 -45 -7 -7 -221 -98 -230 -98 -10 0 8 73 23 97 38 57
125 80 175 46z"/>
</g>
</svg>
