<?xml version="1.0" encoding="UTF-8" standalone="no"?>
<!-- Created with Inkscape (http://www.inkscape.org/) -->

<svg
   width="198.46152mm"
   height="69.818573mm"
   viewBox="0 0 198.46152 69.818573"
   version="1.1"
   id="svg1"
   xml:space="preserve"
   xmlns="http://www.w3.org/2000/svg"
   xmlns:svg="http://www.w3.org/2000/svg"><defs
     id="defs1" /><g
     id="layer1"
     transform="translate(-4.7127543,-30.338755)"><path
       style="fill:#000000"
       d="m 13.82425,99.865695 c -1.070897,-0.14175 -2.528806,-0.52909 -3.239797,-0.86076 -1.6843243,-0.78571 -3.9199217,-2.9127 -4.8943723,-4.6566 -0.9742857,-1.74359 -1.2631033,-5.37326 -0.6709127,-8.43158 0.8501231,-4.3904 4.8122137,-11.7592 9.531816,-17.72754 l 2.434925,-3.07917 -0.656362,-1.1616 c -1.047989,-1.85468 -2.744344,-7.11502 -3.10471,-9.6276 -0.429436,-2.99416 -0.429402,-8.20911 7.1e-5,-10.89147 0.935828,-5.84489 6.494741,-11.27102 12.955234,-12.64578 2.932769,-0.62408 4.949032,-0.59862 9.614004,0.12143 4.868768,0.7515 8.858862,2.04265 12.375155,4.00445 5.184853,2.89271 4.223751,2.82039 9.071905,0.68262 8.053073,-3.55098 13.708819,-4.97984 19.711256,-4.97984 8.778623,0 13.289985,3.42 13.323061,10.10004 0.03101,6.26345 -4.402162,15.64535 -10.972567,23.22118 l -0.993284,1.14528 1.391179,3.90309 c 3.207187,8.99808 3.250602,17.28646 0.118732,22.66748 -1.418447,2.4371 -4.173331,5.13766 -6.159184,6.03773 -3.48156,1.57798 -5.881804,2.05038 -10.315209,2.03016 -5.711145,-0.026 -9.340755,-0.93354 -16.18486,-4.04664 -1.305203,-0.59368 -2.913834,-1.41116 -3.574735,-1.81663 -1.509186,-0.9259 -1.578227,-0.92329 -3.992334,0.15089 -6.184662,2.75194 -15.466885,5.42125 -20.5221,5.90159 -1.627337,0.154635 -3.035526,0.266715 -3.12931,0.249075 -0.09378,-0.0176 -1.046704,-0.14805 -2.117601,-0.289805 z m 52.317662,-4.00957 c 6.29332,-1.18274 11.205233,-5.91198 12.881417,-12.40237 0.864727,-3.34833 0.869442,-5.20503 0.02249,-8.85434 -0.848555,-3.6562 -1.710869,-6.0447 -2.641607,-7.31692 -0.05,-0.0684 -2.346047,1.98796 -5.102323,4.56957 -6.906872,6.4692 -13.581814,11.61843 -21.769738,16.79379 -2.062535,1.30367 -3.750063,2.52148 -3.750063,2.70625 0,1.02831 8.021671,4.01853 12.447639,4.64007 1.853823,0.26033 6.200773,0.18559 7.91219,-0.13605 z m -35.436835,-1.16688 c 3.405769,-1.01347 7.555413,-2.5868 8.305936,-3.14917 0.309484,-0.2319 -0.170311,-0.7544 -1.862529,-2.0283 -7.034451,-5.29553 -14.392386,-13.36782 -17.82787,-19.55871 -1.510625,-2.72221 -1.6371,-2.83119 -2.326031,-2.00436 -2.130884,2.55743 -5.210285,8.10071 -6.647575,11.96641 -1.5372343,4.13451 -1.7052673,9.02848 -0.3889013,11.32678 2.0870893,3.64393 4.9133303,4.67168 12.4633383,4.53221 4.503825,-0.0832 5.242787,-0.17998 8.283632,-1.08486 z m 16.053862,-6.53341 c 13.95527,-7.59767 27.200667,-18.93549 35.402586,-30.30397 2.070658,-2.87009 3.894436,-6.17751 5.172982,-9.38119 0.940424,-2.35644 1.046076,-2.98529 1.06048,-6.31203 0.01436,-3.31734 -0.06827,-3.84373 -0.8088,-5.15201 -3.168532,-5.59785 -9.893107,-6.7981 -21.021842,-3.75213 -3.976697,1.08843 -12.438627,4.46675 -12.414569,4.95636 0.0068,0.13912 0.582326,0.64236 1.278867,1.11832 2.100595,1.43538 7.925732,6.15679 7.769779,6.2976 -0.08002,0.0722 -1.729473,-0.96697 -3.665448,-2.30936 -1.935975,-1.34239 -4.258009,-2.94715 -5.160076,-3.56613 l -1.640121,-1.12541 -1.623421,0.74274 c -2.046279,0.9362 -7.294756,3.8057 -10.534579,5.75956 -1.363481,0.82229 -2.564582,1.49507 -2.669114,1.49507 -0.433943,0 11.716718,-7.87842 12.648598,-8.20128 0.873996,-0.3028 0.573161,-0.84784 -0.936187,-1.69614 -6.742538,-3.7895 -14.836523,-5.73007 -20.688003,-4.96006 -7.320883,0.96338 -11.988293,5.0813 -14.046,12.39237 -1.648588,5.85746 0.229136,14.2543 4.957928,22.17095 0.657506,1.10076 1.526162,2.5556 1.930347,3.23299 2.004006,3.35859 6.886831,9.20118 10.682422,12.78214 3.539005,3.33889 9.398911,7.69346 10.353021,7.69346 0.27203,0 2.050048,-0.84683 3.95115,-1.88185 z M 29.168968,75.181325 c -1.06887,-2.41319 -3.110583,-6.95093 -4.537141,-10.08385 -1.426558,-3.13292 -2.882764,-6.389 -3.236013,-7.23574 -0.353249,-0.84673 -1.638401,-3.75642 -2.855893,-6.46598 -1.939322,-4.316 -2.142359,-4.95186 -1.638525,-5.1315 0.316303,-0.11277 2.186468,-0.64245 4.155924,-1.17706 1.969455,-0.53461 4.904993,-1.36212 6.523417,-1.83893 l 2.942589,-0.86691 0.694893,1.27421 c 0.382191,0.70082 1.331707,2.5905 2.110036,4.1993 0.778328,1.6088 1.865448,3.78815 2.415822,4.84301 0.550373,1.05485 1.000679,2.02856 1.000679,2.16379 0,0.13523 0.240882,0.55637 0.535293,0.93587 0.52649,0.67866 0.636451,0.57976 6.685615,-6.01259 3.382676,-3.68642 6.432172,-6.96764 6.776657,-7.29159 0.611554,-0.57509 0.683744,-0.48063 3.058838,4.00275 1.337877,2.52546 3.057338,5.80412 3.821025,7.28591 0.763688,1.48179 1.490258,2.69416 1.614601,2.69416 0.124342,0 1.828555,-1.81385 3.787139,-4.03077 6.96999,-7.88932 8.587504,-9.67215 8.860258,-9.76583 0.151937,-0.0522 1.937592,0.42598 3.968121,1.06258 2.030528,0.6366 4.681738,1.45528 5.891577,1.81929 1.209839,0.36401 2.245018,0.78647 2.300398,0.9388 0.05538,0.15232 -0.538246,1.03902 -1.319169,1.97043 -0.780923,0.93141 -3.343706,3.97966 -5.695072,6.77388 -2.351366,2.79423 -7.104793,8.47505 -10.56317,12.62406 -3.458377,4.149 -6.611428,7.9141 -7.006778,8.36689 -0.395351,0.45279 -1.170285,1.38805 -1.722075,2.07835 -0.55179,0.69031 -1.088915,1.2534 -1.193609,1.25133 -0.193192,-0.004 -0.595238,-0.62227 -6.109809,-9.39829 -2.501889,-3.98156 -3.244679,-4.93746 -3.836717,-4.93746 -0.728032,0 -2.856786,2.01686 -14.241341,13.49279 -0.461997,0.4657 -0.930934,0.84673 -1.042082,0.84673 -0.111148,0 -1.076618,-1.97443 -2.145488,-4.38763 z m 128.300832,3.11428 c -2.49693,-0.36961 -6.30528,-2.07158 -8.11431,-3.62633 -0.80531,-0.69212 -1.53426,-1.25839 -1.6199,-1.25839 -0.0856,0 -0.15569,1.03917 -0.15569,2.30927 v 2.30928 h -13.98228 -13.98228 v -11.39244 -11.39244 h -3.92186 -3.92186 v 11.39244 11.39244 h -5.11547 -5.11547 v -11.39244 -11.39244 h -4.603915 -4.603921 v -3.8488 -3.84879 h 27.282496 27.28249 v 2.46323 c 0,1.35477 0.10123,2.46323 0.22494,2.46323 0.12372,0 1.08287,-0.73646 2.13145,-1.63658 2.45668,-2.10887 5.00428,-3.21106 8.84142,-3.82512 2.9016,-0.46435 3.25622,-0.45995 6.08204,0.0755 3.06433,0.5806 5.87457,1.70717 7.67996,3.07873 0.55599,0.42239 1.15259,0.76799 1.32576,0.76799 0.17318,0 0.31487,-0.76206 0.31487,-1.69347 v -1.69347 h 4.94495 4.94495 v 5.23436 5.23437 h 4.77444 4.77444 v -5.20986 -5.20986 l 2.13144,-0.19908 c 1.1723,-0.10949 3.43589,-0.15516 5.03021,-0.10148 l 2.89877,0.0976 0.0884,15.31821 0.0884,15.31821 h -5.11865 -5.11865 v -6.00412 -6.00412 h -4.77444 -4.77444 v 6.00412 6.00412 h -4.94495 -4.94495 v -1.84742 c 0,-1.01608 -0.14813,-1.84742 -0.32917,-1.84742 -0.18104,0 -0.83326,0.39388 -1.44938,0.87528 -2.04499,1.59786 -4.27151,2.54883 -6.99336,2.98693 -2.98433,0.48035 -4.53627,0.50148 -7.25656,0.0988 z m 9.46984,-2.0349 c 3.89758,-1.39387 7.09671,-4.83407 7.74272,-8.32621 l 0.24414,-1.31968 -3.46574,0.0881 -3.46575,0.0881 -0.74394,1.68131 c -0.6062,1.37003 -1.04906,1.85144 -2.39193,2.6002 -1.39186,0.77608 -2.00138,0.91999 -3.92186,0.92592 -3.60061,0.0111 -6.04887,-1.46855 -7.59718,-4.59162 -0.62793,-1.26659 -0.7665,-2.11267 -0.78164,-4.77251 -0.0178,-3.11811 0.0237,-3.30381 1.1676,-5.22632 0.8012,-1.34659 1.66579,-2.29564 2.66477,-2.92508 1.37177,-0.86435 1.69463,-0.93176 4.46256,-0.93176 2.75901,0 3.09534,0.0696 4.4642,0.92371 0.88917,0.55481 1.69472,1.3836 2.01703,2.07522 l 0.53663,1.15151 3.52267,0.003 3.52267,0.003 -0.23923,-1.00068 c -0.63895,-2.67266 -2.95818,-5.27293 -6.08852,-6.82629 -2.84451,-1.41152 -5.09807,-1.82861 -8.90796,-1.64869 -3.55699,0.16798 -6.47871,1.16234 -8.78333,2.98927 -5.61772,4.45329 -7.02793,12.19188 -3.46777,19.02948 0.96351,1.85051 4.16924,4.63651 6.48148,5.63284 3.88467,1.67389 8.98895,1.82159 13.02838,0.37699 z m -56.6132,-10.9323 0.0895,-11.31546 h 5.27758 5.27758 l 0.0895,11.31546 0.0895,11.31547 12.37572,0.0808 12.37572,0.0808 -0.0986,-2.69802 -0.0986,-2.69801 -8.78155,-0.0822 -8.78155,-0.0822 v -3.38174 -3.38174 h 7.93041 7.93041 l -0.001,-2.23231 -0.001,-2.2323 -7.92898,-0.0827 -7.92897,-0.0827 v -3.22732 -3.22731 h 8.69629 8.6963 v -2.30928 -2.30928 l -11.85084,-0.002 c -6.51795,-10e-4 -17.529,-0.0806 -24.46899,-0.17638 -6.93998,-0.0957 -13.308735,-0.0562 -14.152787,0.0878 l -1.53464,0.26188 v 2.45471 2.45471 l 4.859691,0.0854 4.859696,0.0854 v 11.39475 11.39476 l 3.49557,-0.0877 3.49557,-0.0877 z m 71.49061,10.98238 c 0.11385,-0.26787 0.207,-3.03901 0.207,-6.15808 v -5.67103 h 6.30187 6.30187 l 0.0925,6.0811 0.0925,6.0811 2.55372,0.0919 c 1.40454,0.0506 2.90082,0.0133 3.32505,-0.0828 l 0.77134,-0.17479 v -13.8498 -13.84981 h -3.40226 -3.40226 l -0.0933,5.31134 -0.0933,5.31134 -6.21574,0.0839 -6.21573,0.0839 -0.0933,-5.31826 -0.0933,-5.31826 -3.49557,-0.0877 -3.49557,-0.0877 v 2.33534 c 0,1.55735 0.18537,2.65898 0.55643,3.30682 0.30603,0.53432 0.63397,1.84373 0.72875,2.9098 0.16208,1.82298 0.12897,1.93831 -0.55642,1.93831 -0.6928,0 -0.72876,0.14326 -0.72876,2.90367 0,2.77037 0.035,2.90819 0.76182,3.00206 0.6753,0.0872 0.7495,0.25074 0.65336,1.43978 -0.0597,0.73777 -0.33977,2.05406 -0.62248,2.92509 -0.55795,1.71901 -0.98531,6.07471 -0.66903,6.81885 0.29543,0.69512 6.53459,0.67139 6.83099,-0.026 z m -18.65718,-5.99853 c 1.69413,-0.57791 2.77917,-1.79226 3.18727,-3.56711 l 0.37886,-1.64767 h 3.38613 3.38614 v -2.92508 -2.92509 h -3.39717 -3.39717 l -0.34873,-1.1693 c -0.88034,-2.95174 -5.17756,-4.38422 -8.52572,-2.84204 -1.66552,0.76715 -2.54413,1.77484 -3.31135,3.79784 -1.61681,4.26317 0.10978,9.86072 3.44631,11.17285 1.26544,0.49765 3.88978,0.55099 5.19543,0.1056 z m -17.62616,-0.43604 c 0,-0.0812 -0.21712,-0.67011 -0.48248,-1.30859 -0.26537,-0.63848 -0.57522,-1.5419 -0.68856,-2.0076 l -0.20608,-0.84674 h -7.15516 -7.15516 v 2.15533 2.15532 h 7.84372 c 4.31405,0 7.84372,-0.0665 7.84372,-0.14772 z m -0.45843,-13.07012 c 0.40434,-1.00367 0.64733,-1.90416 0.53996,-2.0011 -0.10736,-0.0969 -3.6993,-0.17625 -7.98209,-0.17625 h -7.78688 v 2.00138 2.00137 l 7.24692,-2.7e-4 7.24691,-2.8e-4 z"
       id="path1" /></g></svg>
